<svg width="88" height="291" viewBox="0 0 88 291" fill="none" xmlns="http://www.w3.org/2000/svg">
<path d="M86 4V2H84H49.2H47.2V4V246.8C47.2 249.494 46.7986 251.006 46.2761 251.806C45.8767 252.416 45.2883 252.8 44 252.8C42.7117 252.8 42.1233 252.416 41.7239 251.806C41.2014 251.006 40.8 249.494 40.8 246.8V165.6V163.6H38.8H4H2V165.6V246.4C2 259.462 6.36608 270.013 13.9664 277.294C21.5542 284.564 32.1828 288.4 44.4 288.4C56.4274 288.4 66.8619 284.557 74.2988 277.279C81.7438 269.994 86 259.447 86 246.4V4Z" fill="white" stroke="black" stroke-width="4"/>
</svg>
